# xmcd
#
# Track frame offsets:
#	150
#	36643
#	70137
#	95264
#	128421
#	156518
#	186159
#	226672
#
# Disc length: 4440 seconds
#
# Revision: 1
# Processed by: cddbd v1.5.2PL0 Copyright (c) Steve Scherf et al.
# Submitted via: audiograbber 1.83.01
#
DISCID=63115608
DTITLE=Stanley Turrentine - That's where it's at (RVG-edition)
DYEAR=1962
DGENRE=Jazz
TTITLE0=Smile, Stacey
TTITLE1=Soft pedal blues
TTITLE2=Pia
TTITLE3=We'll see yaw'll after while, Ya Heah
TTITLE4=Dorene don't cry
TTITLE5=Light blue
TTITLE6=Light blue (alternate take)
TTITLE7=Gegevens track
EXTD=
EXTT0=
EXTT1=
EXTT2=
EXTT3=
EXTT4=
EXTT5=
EXTT6=
EXTT7=
PLAYORDER=
